<?xml version="1.0" encoding="utf-8"?><!DOCTYPE svg PUBLIC "-//W3C//DTD SVG 1.1//EN" "http://www.w3.org/Graphics/SVG/1.1/DTD/svg11.dtd"><svg xmlns="http://www.w3.org/2000/svg" xml:space="preserve" xmlns:xlink="http://www.w3.org/1999/xlink" width="792" height="792" viewBox="0 0 792 792">
<g fill="#12232f">
<g transform="translate(240,48) scale(4.24)"><circle cx="3" cy="3" r="3"/></g>
<g transform="translate(288,48) scale(4.24)"><path d="M6,6H3C1.3,6,0,4.7,0,3v0c0-1.7,1.3-3,3-3h3C6,0,6,6,6,6z"/></g>
<g transform="translate(312,48) scale(4.24)"><rect width="6" height="6"/></g>
<g transform="translate(336,48) scale(4.24)"><rect width="6" height="6"/></g>
<g transform="translate(360,48) scale(4.24)"><rect width="6" height="6"/></g>
<g transform="translate(384,48) scale(4.24)"><rect width="6" height="6"/></g>
<g transform="translate(408,48) scale(4.24)"><path d="M6,6H0V0l3,0c1.7,0,3,1.3,3,3V6z"/></g>
<g transform="translate(480,48) scale(4.24)"><path d="M6,6H0V3c0-1.7,1.3-3,3-3h0c1.7,0,3,1.3,3,3V6z"/></g>
<g transform="translate(528,48) scale(4.24)"><circle cx="3" cy="3" r="3"/></g>
<g transform="translate(264,72) scale(4.24)"><circle cx="3" cy="3" r="3"/></g>
<g transform="translate(408,72) scale(4.24)"><rect width="6" height="6"/></g>
<g transform="translate(432,72) scale(4.24)"><rect width="6" height="6"/></g>
<g transform="translate(456,72) scale(4.24)"><rect width="6" height="6"/></g>
<g transform="translate(480,72) scale(4.24)"><rect width="6" height="6"/></g>
<g transform="translate(504,72) scale(4.24)"><path d="M6,6H0V0l3,0c1.7,0,3,1.3,3,3V6z"/></g>
<g transform="translate(288,96) scale(4.24)"><path d="M6,6H0V3c0-1.7,1.3-3,3-3l3,0V6z"/></g>
<g transform="translate(312,96) scale(4.24)"><path d="M3,6H0V0l3,0c1.7,0,3,1.3,3,3v0C6,4.7,4.7,6,3,6z"/></g>
<g transform="translate(360,96) scale(4.24)"><path d="M6,6H0V3c0-1.7,1.3-3,3-3h0c1.7,0,3,1.3,3,3V6z"/></g>
<g transform="translate(408,96) scale(4.24)"><path d="M3,6L3,6C1.3,6,0,4.7,0,3V0h6v3C6,4.7,4.7,6,3,6z"/></g>
<g transform="translate(480,96) scale(4.24)"><path d="M6,6H3C1.3,6,0,4.7,0,3V0l6,0V6z"/></g>
<g transform="translate(504,96) scale(4.24)"><rect width="6" height="6"/></g>
<g transform="translate(528,96) scale(4.24)"><path d="M6,6H0V0l3,0c1.7,0,3,1.3,3,3V6z"/></g>
<g transform="translate(264,120) scale(4.24)"><path d="M6,6H3C1.3,6,0,4.7,0,3v0c0-1.7,1.3-3,3-3h3C6,0,6,6,6,6z"/></g>
<g transform="translate(288,120) scale(4.24)"><rect width="6" height="6"/></g>
<g transform="translate(336,120) scale(4.24)"><path d="M6,6H3C1.3,6,0,4.7,0,3v0c0-1.7,1.3-3,3-3h3C6,0,6,6,6,6z"/></g>
<g transform="translate(360,120) scale(4.24)"><rect width="6" height="6"/></g>
<g transform="translate(384,120) scale(4.24)"><path d="M6,6H0V0l3,0c1.7,0,3,1.3,3,3V6z"/></g>
<g transform="translate(432,120) scale(4.24)"><path d="M6,6H3C1.3,6,0,4.7,0,3v0c0-1.7,1.3-3,3-3h3C6,0,6,6,6,6z"/></g>
<g transform="translate(456,120) scale(4.24)"><path d="M3,6H0V0l3,0c1.7,0,3,1.3,3,3v0C6,4.7,4.7,6,3,6z"/></g>
<g transform="translate(504,120) scale(4.24)"><rect width="6" height="6"/></g>
<g transform="translate(528,120) scale(4.24)"><rect width="6" height="6"/></g>
<g transform="translate(240,144) scale(4.24)"><path d="M6,6H0V3c0-1.7,1.3-3,3-3h0c1.7,0,3,1.3,3,3V6z"/></g>
<g transform="translate(288,144) scale(4.24)"><path d="M6,6H3C1.3,6,0,4.7,0,3V0l6,0V6z"/></g>
<g transform="translate(312,144) scale(4.24)"><path d="M3,6H0V0l3,0c1.7,0,3,1.3,3,3v0C6,4.7,4.7,6,3,6z"/></g>
<g transform="translate(384,144) scale(4.24)"><rect width="6" height="6"/></g>
<g transform="translate(408,144) scale(4.24)"><path d="M3,6H0V0l3,0c1.7,0,3,1.3,3,3v0C6,4.7,4.7,6,3,6z"/></g>
<g transform="translate(480,144) scale(4.24)"><path d="M6,6H0V3c0-1.7,1.3-3,3-3l3,0V6z"/></g>
<g transform="translate(504,144) scale(4.24)"><rect width="6" height="6"/></g>
<g transform="translate(528,144) scale(4.24)"><rect width="6" height="6"/></g>
<g transform="translate(240,168) scale(4.24)"><rect width="6" height="6"/></g>
<g transform="translate(360,168) scale(4.24)"><path d="M6,6H3C1.3,6,0,4.7,0,3v0c0-1.7,1.3-3,3-3h3C6,0,6,6,6,6z"/></g>
<g transform="translate(384,168) scale(4.24)"><rect width="6" height="6"/></g>
<g transform="translate(480,168) scale(4.24)"><rect width="6" height="6"/></g>
<g transform="translate(528,168) scale(4.24)"><rect width="6" height="6"/></g>
<g transform="translate(240,192) scale(4.24)"><path d="M3,6L3,6C1.3,6,0,4.7,0,3V0h6v3C6,4.7,4.7,6,3,6z"/></g>
<g transform="translate(288,192) scale(4.24)"><path d="M6,6H0V3c0-1.7,1.3-3,3-3h0c1.7,0,3,1.3,3,3V6z"/></g>
<g transform="translate(336,192) scale(4.24)"><circle cx="3" cy="3" r="3"/></g>
<g transform="translate(384,192) scale(4.24)"><rect width="6" height="6"/></g>
<g transform="translate(432,192) scale(4.24)"><circle cx="3" cy="3" r="3"/></g>
<g transform="translate(480,192) scale(4.24)"><path d="M3,6L3,6C1.3,6,0,4.7,0,3V0h6v3C6,4.7,4.7,6,3,6z"/></g>
<g transform="translate(528,192) scale(4.24)"><path d="M3,6L3,6C1.3,6,0,4.7,0,3V0h6v3C6,4.7,4.7,6,3,6z"/></g>
<g transform="translate(264,216) scale(4.24)"><path d="M6,6H3C1.3,6,0,4.7,0,3v0c0-1.7,1.3-3,3-3h3C6,0,6,6,6,6z"/></g>
<g transform="translate(288,216) scale(4.24)"><rect width="6" height="6"/></g>
<g transform="translate(384,216) scale(4.24)"><path d="M3,6L3,6C1.3,6,0,4.7,0,3V0h6v3C6,4.7,4.7,6,3,6z"/></g>
<g transform="translate(72,240) scale(4.24)"><path d="M6,6H0V3c0-1.7,1.3-3,3-3l3,0V6z"/></g>
<g transform="translate(96,240) scale(4.24)"><rect width="6" height="6"/></g>
<g transform="translate(120,240) scale(4.24)"><rect width="6" height="6"/></g>
<g transform="translate(144,240) scale(4.24)"><rect width="6" height="6"/></g>
<g transform="translate(168,240) scale(4.24)"><rect width="6" height="6"/></g>
<g transform="translate(192,240) scale(4.24)"><rect width="6" height="6"/></g>
<g transform="translate(216,240) scale(4.24)"><path d="M3,6H0V0l3,0c1.7,0,3,1.3,3,3v0C6,4.7,4.7,6,3,6z"/></g>
<g transform="translate(288,240) scale(4.24)"><rect width="6" height="6"/></g>
<g transform="translate(312,240) scale(4.24)"><rect width="6" height="6"/></g>
<g transform="translate(336,240) scale(4.24)"><rect width="6" height="6"/></g>
<g transform="translate(360,240) scale(4.24)"><path d="M6,6H0V0l3,0c1.7,0,3,1.3,3,3V6z"/></g>
<g transform="translate(480,240) scale(4.24)"><circle cx="3" cy="3" r="3"/></g>
<g transform="translate(600,240) scale(4.24)"><path d="M6,6H0V3c0-1.7,1.3-3,3-3l3,0V6z"/></g>
<g transform="translate(624,240) scale(4.24)"><path d="M6,6H0V0l3,0c1.7,0,3,1.3,3,3V6z"/></g>
<g transform="translate(720,240) scale(4.24)"><path d="M6,6H0V3c0-1.7,1.3-3,3-3h0c1.7,0,3,1.3,3,3V6z"/></g>
<g transform="translate(48,264) scale(4.24)"><path d="M6,6H3C1.3,6,0,4.7,0,3v0c0-1.7,1.3-3,3-3h3C6,0,6,6,6,6z"/></g>
<g transform="translate(72,264) scale(4.24)"><path d="M3,6H0V0l6,0v3C6,4.7,4.7,6,3,6z"/></g>
<g transform="translate(168,264) scale(4.24)"><path d="M3,6L3,6C1.3,6,0,4.7,0,3V0h6v3C6,4.7,4.7,6,3,6z"/></g>
<g transform="translate(240,264) scale(4.24)"><path d="M6,6H0V3c0-1.7,1.3-3,3-3h0c1.7,0,3,1.3,3,3V6z"/></g>
<g transform="translate(288,264) scale(4.24)"><path d="M6,6H3C1.3,6,0,4.7,0,3V0l6,0V6z"/></g>
<g transform="translate(312,264) scale(4.24)"><rect width="6" height="6"/></g>
<g transform="translate(336,264) scale(4.24)"><rect width="6" height="6"/></g>
<g transform="translate(360,264) scale(4.24)"><path d="M3,6H0V0l6,0v3C6,4.7,4.7,6,3,6z"/></g>
<g transform="translate(432,264) scale(4.24)"><path d="M6,6H0V3c0-1.7,1.3-3,3-3h0c1.7,0,3,1.3,3,3V6z"/></g>
<g transform="translate(552,264) scale(4.24)"><path d="M6,6H0V3c0-1.7,1.3-3,3-3l3,0V6z"/></g>
<g transform="translate(576,264) scale(4.24)"><rect width="6" height="6"/></g>
<g transform="translate(600,264) scale(4.24)"><rect width="6" height="6"/></g>
<g transform="translate(624,264) scale(4.24)"><rect width="6" height="6"/></g>
<g transform="translate(648,264) scale(4.24)"><rect width="6" height="6"/></g>
<g transform="translate(672,264) scale(4.24)"><path d="M6,6H0V0l3,0c1.7,0,3,1.3,3,3V6z"/></g>
<g transform="translate(720,264) scale(4.24)"><path d="M3,6L3,6C1.3,6,0,4.7,0,3V0h6v3C6,4.7,4.7,6,3,6z"/></g>
<g transform="translate(144,288) scale(4.24)"><circle cx="3" cy="3" r="3"/></g>
<g transform="translate(192,288) scale(4.24)"><circle cx="3" cy="3" r="3"/></g>
<g transform="translate(240,288) scale(4.24)"><path d="M6,6H3C1.3,6,0,4.7,0,3V0l6,0V6z"/></g>
<g transform="translate(264,288) scale(4.24)"><path d="M3,6H0V0l3,0c1.7,0,3,1.3,3,3v0C6,4.7,4.7,6,3,6z"/></g>
<g transform="translate(432,288) scale(4.24)"><rect width="6" height="6"/></g>
<g transform="translate(480,288) scale(4.24)"><circle cx="3" cy="3" r="3"/></g>
<g transform="translate(552,288) scale(4.24)"><rect width="6" height="6"/></g>
<g transform="translate(576,288) scale(4.24)"><rect width="6" height="6"/></g>
<g transform="translate(600,288) scale(4.24)"><path d="M3,6H0V0l6,0v3C6,4.7,4.7,6,3,6z"/></g>
<g transform="translate(648,288) scale(4.24)"><rect width="6" height="6"/></g>
<g transform="translate(672,288) scale(4.24)"><path d="M3,6H0V0l6,0v3C6,4.7,4.7,6,3,6z"/></g>
<g transform="translate(48,312) scale(4.24)"><path d="M6,6H0V3c0-1.7,1.3-3,3-3h0c1.7,0,3,1.3,3,3V6z"/></g>
<g transform="translate(96,312) scale(4.24)"><path d="M6,6H0V3c0-1.7,1.3-3,3-3h0c1.7,0,3,1.3,3,3V6z"/></g>
<g transform="translate(168,312) scale(4.24)"><path d="M6,6H0V3c0-1.7,1.3-3,3-3h0c1.7,0,3,1.3,3,3V6z"/></g>
<g transform="translate(216,312) scale(4.24)"><path d="M6,6H0V3c0-1.7,1.3-3,3-3h0c1.7,0,3,1.3,3,3V6z"/></g>
<g transform="translate(288,312) scale(4.24)"><circle cx="3" cy="3" r="3"/></g>
<g transform="translate(360,312) scale(4.24)"><path d="M6,6H0V3c0-1.7,1.3-3,3-3l3,0V6z"/></g>
<g transform="translate(384,312) scale(4.24)"><rect width="6" height="6"/></g>
<g transform="translate(408,312) scale(4.24)"><rect width="6" height="6"/></g>
<g transform="translate(432,312) scale(4.24)"><rect width="6" height="6"/></g>
<g transform="translate(504,312) scale(4.24)"><circle cx="3" cy="3" r="3"/></g>
<g transform="translate(552,312) scale(4.24)"><rect width="6" height="6"/></g>
<g transform="translate(576,312) scale(4.24)"><path d="M3,6H0V0l6,0v3C6,4.7,4.7,6,3,6z"/></g>
<g transform="translate(624,312) scale(4.24)"><path d="M6,6H3C1.3,6,0,4.7,0,3v0c0-1.7,1.3-3,3-3h3C6,0,6,6,6,6z"/></g>
<g transform="translate(648,312) scale(4.24)"><path d="M3,6H0V0l6,0v3C6,4.7,4.7,6,3,6z"/></g>
<g transform="translate(696,312) scale(4.24)"><path d="M6,6H0V3c0-1.7,1.3-3,3-3h0c1.7,0,3,1.3,3,3V6z"/></g>
<g transform="translate(48,336) scale(4.24)"><rect width="6" height="6"/></g>
<g transform="translate(72,336) scale(4.24)"><rect width="6" height="6"/></g>
<g transform="translate(96,336) scale(4.24)"><path d="M3,6H0V0l6,0v3C6,4.7,4.7,6,3,6z"/></g>
<g transform="translate(144,336) scale(4.24)"><path d="M6,6H3C1.3,6,0,4.7,0,3v0c0-1.7,1.3-3,3-3h3C6,0,6,6,6,6z"/></g>
<g transform="translate(168,336) scale(4.24)"><rect width="6" height="6"/></g>
<g transform="translate(192,336) scale(4.24)"><rect width="6" height="6"/></g>
<g transform="translate(216,336) scale(4.24)"><rect width="6" height="6"/></g>
<g transform="translate(240,336) scale(4.24)"><rect width="6" height="6"/></g>
<g transform="translate(264,336) scale(4.24)"><path d="M3,6H0V0l3,0c1.7,0,3,1.3,3,3v0C6,4.7,4.7,6,3,6z"/></g>
<g transform="translate(312,336) scale(4.24)"><circle cx="3" cy="3" r="3"/></g>
<g transform="translate(360,336) scale(4.24)"><rect width="6" height="6"/></g>
<g transform="translate(384,336) scale(4.24)"><rect width="6" height="6"/></g>
<g transform="translate(432,336) scale(4.24)"><path d="M6,6H3C1.3,6,0,4.7,0,3V0l6,0V6z"/></g>
<g transform="translate(456,336) scale(4.24)"><path d="M6,6H0V0l3,0c1.7,0,3,1.3,3,3V6z"/></g>
<g transform="translate(552,336) scale(4.24)"><rect width="6" height="6"/></g>
<g transform="translate(600,336) scale(4.24)"><circle cx="3" cy="3" r="3"/></g>
<g transform="translate(672,336) scale(4.24)"><path d="M6,6H3C1.3,6,0,4.7,0,3v0c0-1.7,1.3-3,3-3h3C6,0,6,6,6,6z"/></g>
<g transform="translate(696,336) scale(4.24)"><rect width="6" height="6"/></g>
<g transform="translate(720,336) scale(4.24)"><path d="M6,6H0V0l3,0c1.7,0,3,1.3,3,3V6z"/></g>
<g transform="translate(48,360) scale(4.24)"><path d="M3,6L3,6C1.3,6,0,4.7,0,3V0h6v3C6,4.7,4.7,6,3,6z"/></g>
<g transform="translate(168,360) scale(4.24)"><path d="M3,6L3,6C1.3,6,0,4.7,0,3V0h6v3C6,4.7,4.7,6,3,6z"/></g>
<g transform="translate(216,360) scale(4.24)"><rect width="6" height="6"/></g>
<g transform="translate(288,360) scale(4.24)"><path d="M6,6H0V3c0-1.7,1.3-3,3-3h0c1.7,0,3,1.3,3,3V6z"/></g>
<g transform="translate(336,360) scale(4.24)"><path d="M6,6H0V3c0-1.7,1.3-3,3-3l3,0V6z"/></g>
<g transform="translate(360,360) scale(4.24)"><rect width="6" height="6"/></g>
<g transform="translate(384,360) scale(4.24)"><rect width="6" height="6"/></g>
<g transform="translate(408,360) scale(4.24)"><path d="M3,6H0V0l3,0c1.7,0,3,1.3,3,3v0C6,4.7,4.7,6,3,6z"/></g>
<g transform="translate(456,360) scale(4.24)"><rect width="6" height="6"/></g>
<g transform="translate(480,360) scale(4.24)"><rect width="6" height="6"/></g>
<g transform="translate(504,360) scale(4.24)"><rect width="6" height="6"/></g>
<g transform="translate(528,360) scale(4.24)"><rect width="6" height="6"/></g>
<g transform="translate(552,360) scale(4.24)"><rect width="6" height="6"/></g>
<g transform="translate(576,360) scale(4.24)"><path d="M3,6H0V0l3,0c1.7,0,3,1.3,3,3v0C6,4.7,4.7,6,3,6z"/></g>
<g transform="translate(624,360) scale(4.24)"><path d="M6,6H3C1.3,6,0,4.7,0,3v0c0-1.7,1.3-3,3-3h3C6,0,6,6,6,6z"/></g>
<g transform="translate(648,360) scale(4.24)"><path d="M3,6H0V0l3,0c1.7,0,3,1.3,3,3v0C6,4.7,4.7,6,3,6z"/></g>
<g transform="translate(696,360) scale(4.24)"><path d="M6,6H3C1.3,6,0,4.7,0,3V0l6,0V6z"/></g>
<g transform="translate(720,360) scale(4.24)"><path d="M3,6H0V0l6,0v3C6,4.7,4.7,6,3,6z"/></g>
<g transform="translate(72,384) scale(4.24)"><path d="M6,6H0V3c0-1.7,1.3-3,3-3l3,0V6z"/></g>
<g transform="translate(96,384) scale(4.24)"><path d="M3,6H0V0l3,0c1.7,0,3,1.3,3,3v0C6,4.7,4.7,6,3,6z"/></g>
<g transform="translate(144,384) scale(4.24)"><circle cx="3" cy="3" r="3"/></g>
<g transform="translate(192,384) scale(4.24)"><path d="M6,6H3C1.3,6,0,4.7,0,3v0c0-1.7,1.3-3,3-3h3C6,0,6,6,6,6z"/></g>
<g transform="translate(216,384) scale(4.24)"><path d="M3,6H0V0l6,0v3C6,4.7,4.7,6,3,6z"/></g>
<g transform="translate(288,384) scale(4.24)"><rect width="6" height="6"/></g>
<g transform="translate(312,384) scale(4.24)"><rect width="6" height="6"/></g>
<g transform="translate(336,384) scale(4.24)"><rect width="6" height="6"/></g>
<g transform="translate(384,384) scale(4.24)"><path d="M3,6L3,6C1.3,6,0,4.7,0,3V0h6v3C6,4.7,4.7,6,3,6z"/></g>
<g transform="translate(456,384) scale(4.24)"><rect width="6" height="6"/></g>
<g transform="translate(552,384) scale(4.24)"><rect width="6" height="6"/></g>
<g transform="translate(600,384) scale(4.24)"><circle cx="3" cy="3" r="3"/></g>
<g transform="translate(48,408) scale(4.24)"><path d="M6,6H0V3c0-1.7,1.3-3,3-3l3,0V6z"/></g>
<g transform="translate(72,408) scale(4.24)"><rect width="6" height="6"/></g>
<g transform="translate(168,408) scale(4.24)"><path d="M6,6H0V3c0-1.7,1.3-3,3-3h0c1.7,0,3,1.3,3,3V6z"/></g>
<g transform="translate(288,408) scale(4.24)"><path d="M3,6L3,6C1.3,6,0,4.7,0,3V0h6v3C6,4.7,4.7,6,3,6z"/></g>
<g transform="translate(336,408) scale(4.24)"><rect width="6" height="6"/></g>
<g transform="translate(360,408) scale(4.24)"><path d="M3,6H0V0l3,0c1.7,0,3,1.3,3,3v0C6,4.7,4.7,6,3,6z"/></g>
<g transform="translate(408,408) scale(4.24)"><path d="M6,6H0V3c0-1.7,1.3-3,3-3h0c1.7,0,3,1.3,3,3V6z"/></g>
<g transform="translate(456,408) scale(4.24)"><path d="M6,6H3C1.3,6,0,4.7,0,3V0l6,0V6z"/></g>
<g transform="translate(480,408) scale(4.24)"><path d="M3,6H0V0l3,0c1.7,0,3,1.3,3,3v0C6,4.7,4.7,6,3,6z"/></g>
<g transform="translate(528,408) scale(4.24)"><path d="M6,6H3C1.3,6,0,4.7,0,3v0c0-1.7,1.3-3,3-3h3C6,0,6,6,6,6z"/></g>
<g transform="translate(552,408) scale(4.24)"><rect width="6" height="6"/></g>
<g transform="translate(576,408) scale(4.24)"><path d="M3,6H0V0l3,0c1.7,0,3,1.3,3,3v0C6,4.7,4.7,6,3,6z"/></g>
<g transform="translate(624,408) scale(4.24)"><path d="M6,6H3C1.3,6,0,4.7,0,3v0c0-1.7,1.3-3,3-3h3C6,0,6,6,6,6z"/></g>
<g transform="translate(648,408) scale(4.24)"><path d="M6,6H0V0l3,0c1.7,0,3,1.3,3,3V6z"/></g>
<g transform="translate(720,408) scale(4.24)"><circle cx="3" cy="3" r="3"/></g>
<g transform="translate(48,432) scale(4.24)"><rect width="6" height="6"/></g>
<g transform="translate(72,432) scale(4.24)"><rect width="6" height="6"/></g>
<g transform="translate(96,432) scale(4.24)"><rect width="6" height="6"/></g>
<g transform="translate(120,432) scale(4.24)"><rect width="6" height="6"/></g>
<g transform="translate(144,432) scale(4.24)"><rect width="6" height="6"/></g>
<g transform="translate(168,432) scale(4.24)"><rect width="6" height="6"/></g>
<g transform="translate(192,432) scale(4.24)"><path d="M3,6H0V0l3,0c1.7,0,3,1.3,3,3v0C6,4.7,4.7,6,3,6z"/></g>
<g transform="translate(240,432) scale(4.24)"><path d="M6,6H3C1.3,6,0,4.7,0,3v0c0-1.7,1.3-3,3-3h3C6,0,6,6,6,6z"/></g>
<g transform="translate(264,432) scale(4.24)"><path d="M3,6H0V0l3,0c1.7,0,3,1.3,3,3v0C6,4.7,4.7,6,3,6z"/></g>
<g transform="translate(336,432) scale(4.24)"><path d="M3,6L3,6C1.3,6,0,4.7,0,3V0h6v3C6,4.7,4.7,6,3,6z"/></g>
<g transform="translate(384,432) scale(4.24)"><path d="M6,6H3C1.3,6,0,4.7,0,3v0c0-1.7,1.3-3,3-3h3C6,0,6,6,6,6z"/></g>
<g transform="translate(408,432) scale(4.24)"><rect width="6" height="6"/></g>
<g transform="translate(432,432) scale(4.24)"><path d="M3,6H0V0l3,0c1.7,0,3,1.3,3,3v0C6,4.7,4.7,6,3,6z"/></g>
<g transform="translate(600,432) scale(4.24)"><path d="M6,6H0V3c0-1.7,1.3-3,3-3h0c1.7,0,3,1.3,3,3V6z"/></g>
<g transform="translate(648,432) scale(4.24)"><rect width="6" height="6"/></g>
<g transform="translate(672,432) scale(4.24)"><rect width="6" height="6"/></g>
<g transform="translate(696,432) scale(4.24)"><path d="M6,6H0V0l3,0c1.7,0,3,1.3,3,3V6z"/></g>
<g transform="translate(48,456) scale(4.24)"><rect width="6" height="6"/></g>
<g transform="translate(96,456) scale(4.24)"><path d="M3,6L3,6C1.3,6,0,4.7,0,3V0h6v3C6,4.7,4.7,6,3,6z"/></g>
<g transform="translate(144,456) scale(4.24)"><path d="M3,6L3,6C1.3,6,0,4.7,0,3V0h6v3C6,4.7,4.7,6,3,6z"/></g>
<g transform="translate(288,456) scale(4.24)"><path d="M6,6H0V3c0-1.7,1.3-3,3-3h0c1.7,0,3,1.3,3,3V6z"/></g>
<g transform="translate(408,456) scale(4.24)"><rect width="6" height="6"/></g>
<g transform="translate(456,456) scale(4.24)"><path d="M6,6H3C1.3,6,0,4.7,0,3v0c0-1.7,1.3-3,3-3h3C6,0,6,6,6,6z"/></g>
<g transform="translate(480,456) scale(4.24)"><rect width="6" height="6"/></g>
<g transform="translate(504,456) scale(4.24)"><rect width="6" height="6"/></g>
<g transform="translate(528,456) scale(4.24)"><path d="M6,6H0V0l3,0c1.7,0,3,1.3,3,3V6z"/></g>
<g transform="translate(576,456) scale(4.24)"><path d="M6,6H0V3c0-1.7,1.3-3,3-3l3,0V6z"/></g>
<g transform="translate(600,456) scale(4.24)"><rect width="6" height="6"/></g>
<g transform="translate(624,456) scale(4.24)"><rect width="6" height="6"/></g>
<g transform="translate(648,456) scale(4.24)"><rect width="6" height="6"/></g>
<g transform="translate(672,456) scale(4.24)"><rect width="6" height="6"/></g>
<g transform="translate(696,456) scale(4.24)"><rect width="6" height="6"/></g>
<g transform="translate(720,456) scale(4.24)"><path d="M3,6H0V0l3,0c1.7,0,3,1.3,3,3v0C6,4.7,4.7,6,3,6z"/></g>
<g transform="translate(48,480) scale(4.24)"><rect width="6" height="6"/></g>
<g transform="translate(120,480) scale(4.24)"><circle cx="3" cy="3" r="3"/></g>
<g transform="translate(192,480) scale(4.24)"><path d="M6,6H3C1.3,6,0,4.7,0,3v0c0-1.7,1.3-3,3-3h3C6,0,6,6,6,6z"/></g>
<g transform="translate(216,480) scale(4.24)"><path d="M3,6H0V0l3,0c1.7,0,3,1.3,3,3v0C6,4.7,4.7,6,3,6z"/></g>
<g transform="translate(264,480) scale(4.24)"><path d="M6,6H3C1.3,6,0,4.7,0,3v0c0-1.7,1.3-3,3-3h3C6,0,6,6,6,6z"/></g>
<g transform="translate(288,480) scale(4.24)"><rect width="6" height="6"/></g>
<g transform="translate(312,480) scale(4.24)"><rect width="6" height="6"/></g>
<g transform="translate(336,480) scale(4.24)"><rect width="6" height="6"/></g>
<g transform="translate(360,480) scale(4.24)"><path d="M6,6H0V0l3,0c1.7,0,3,1.3,3,3V6z"/></g>
<g transform="translate(408,480) scale(4.24)"><rect width="6" height="6"/></g>
<g transform="translate(432,480) scale(4.24)"><path d="M3,6H0V0l3,0c1.7,0,3,1.3,3,3v0C6,4.7,4.7,6,3,6z"/></g>
<g transform="translate(528,480) scale(4.24)"><rect width="6" height="6"/></g>
<g transform="translate(576,480) scale(4.24)"><rect width="6" height="6"/></g>
<g transform="translate(600,480) scale(4.24)"><rect width="6" height="6"/></g>
<g transform="translate(624,480) scale(4.24)"><rect width="6" height="6"/></g>
<g transform="translate(648,480) scale(4.24)"><path d="M3,6H0V0l6,0v3C6,4.7,4.7,6,3,6z"/></g>
<g transform="translate(48,504) scale(4.24)"><rect width="6" height="6"/></g>
<g transform="translate(96,504) scale(4.24)"><path d="M6,6H0V3c0-1.7,1.3-3,3-3h0c1.7,0,3,1.3,3,3V6z"/></g>
<g transform="translate(168,504) scale(4.24)"><circle cx="3" cy="3" r="3"/></g>
<g transform="translate(240,504) scale(4.24)"><path d="M6,6H0V3c0-1.7,1.3-3,3-3h0c1.7,0,3,1.3,3,3V6z"/></g>
<g transform="translate(312,504) scale(4.24)"><path d="M6,6H3C1.3,6,0,4.7,0,3V0l6,0V6z"/></g>
<g transform="translate(336,504) scale(4.24)"><rect width="6" height="6"/></g>
<g transform="translate(360,504) scale(4.24)"><rect width="6" height="6"/></g>
<g transform="translate(384,504) scale(4.24)"><rect width="6" height="6"/></g>
<g transform="translate(408,504) scale(4.24)"><rect width="6" height="6"/></g>
<g transform="translate(528,504) scale(4.24)"><rect width="6" height="6"/></g>
<g transform="translate(576,504) scale(4.24)"><rect width="6" height="6"/></g>
<g transform="translate(624,504) scale(4.24)"><rect width="6" height="6"/></g>
<g transform="translate(696,504) scale(4.24)"><path d="M6,6H0V3c0-1.7,1.3-3,3-3l3,0V6z"/></g>
<g transform="translate(720,504) scale(4.24)"><path d="M6,6H0V0l3,0c1.7,0,3,1.3,3,3V6z"/></g>
<g transform="translate(48,528) scale(4.24)"><path d="M3,6L3,6C1.3,6,0,4.7,0,3V0h6v3C6,4.7,4.7,6,3,6z"/></g>
<g transform="translate(96,528) scale(4.24)"><path d="M3,6L3,6C1.3,6,0,4.7,0,3V0h6v3C6,4.7,4.7,6,3,6z"/></g>
<g transform="translate(192,528) scale(4.24)"><circle cx="3" cy="3" r="3"/></g>
<g transform="translate(240,528) scale(4.24)"><rect width="6" height="6"/></g>
<g transform="translate(288,528) scale(4.24)"><path d="M6,6H0V3c0-1.7,1.3-3,3-3h0c1.7,0,3,1.3,3,3V6z"/></g>
<g transform="translate(336,528) scale(4.24)"><rect width="6" height="6"/></g>
<g transform="translate(408,528) scale(4.24)"><path d="M3,6L3,6C1.3,6,0,4.7,0,3V0h6v3C6,4.7,4.7,6,3,6z"/></g>
<g transform="translate(456,528) scale(4.24)"><circle cx="3" cy="3" r="3"/></g>
<g transform="translate(528,528) scale(4.24)"><rect width="6" height="6"/></g>
<g transform="translate(552,528) scale(4.24)"><rect width="6" height="6"/></g>
<g transform="translate(576,528) scale(4.24)"><rect width="6" height="6"/></g>
<g transform="translate(600,528) scale(4.24)"><rect width="6" height="6"/></g>
<g transform="translate(624,528) scale(4.24)"><rect width="6" height="6"/></g>
<g transform="translate(672,528) scale(4.24)"><path d="M6,6H3C1.3,6,0,4.7,0,3v0c0-1.7,1.3-3,3-3h3C6,0,6,6,6,6z"/></g>
<g transform="translate(696,528) scale(4.24)"><rect width="6" height="6"/></g>
<g transform="translate(720,528) scale(4.24)"><rect width="6" height="6"/></g>
<g transform="translate(240,552) scale(4.24)"><rect width="6" height="6"/></g>
<g transform="translate(288,552) scale(4.24)"><rect width="6" height="6"/></g>
<g transform="translate(312,552) scale(4.24)"><rect width="6" height="6"/></g>
<g transform="translate(336,552) scale(4.24)"><rect width="6" height="6"/></g>
<g transform="translate(360,552) scale(4.24)"><rect width="6" height="6"/></g>
<g transform="translate(384,552) scale(4.24)"><path d="M6,6H0V0l3,0c1.7,0,3,1.3,3,3V6z"/></g>
<g transform="translate(480,552) scale(4.24)"><path d="M6,6H0V3c0-1.7,1.3-3,3-3h0c1.7,0,3,1.3,3,3V6z"/></g>
<g transform="translate(528,552) scale(4.24)"><rect width="6" height="6"/></g>
<g transform="translate(624,552) scale(4.24)"><rect width="6" height="6"/></g>
<g transform="translate(648,552) scale(4.24)"><path d="M3,6H0V0l3,0c1.7,0,3,1.3,3,3v0C6,4.7,4.7,6,3,6z"/></g>
<g transform="translate(696,552) scale(4.24)"><path d="M6,6H3C1.3,6,0,4.7,0,3V0l6,0V6z"/></g>
<g transform="translate(720,552) scale(4.24)"><path d="M3,6H0V0l6,0v3C6,4.7,4.7,6,3,6z"/></g>
<g transform="translate(240,576) scale(4.24)"><rect width="6" height="6"/></g>
<g transform="translate(264,576) scale(4.24)"><rect width="6" height="6"/></g>
<g transform="translate(288,576) scale(4.24)"><rect width="6" height="6"/></g>
<g transform="translate(312,576) scale(4.24)"><rect width="6" height="6"/></g>
<g transform="translate(336,576) scale(4.24)"><rect width="6" height="6"/></g>
<g transform="translate(360,576) scale(4.24)"><rect width="6" height="6"/></g>
<g transform="translate(384,576) scale(4.24)"><rect width="6" height="6"/></g>
<g transform="translate(408,576) scale(4.24)"><path d="M6,6H0V0l3,0c1.7,0,3,1.3,3,3V6z"/></g>
<g transform="translate(480,576) scale(4.24)"><path d="M6,6H3C1.3,6,0,4.7,0,3V0l6,0V6z"/></g>
<g transform="translate(504,576) scale(4.24)"><rect width="6" height="6"/></g>
<g transform="translate(528,576) scale(4.24)"><rect width="6" height="6"/></g>
<g transform="translate(576,576) scale(4.24)"><circle cx="3" cy="3" r="3"/></g>
<g transform="translate(624,576) scale(4.24)"><rect width="6" height="6"/></g>
<g transform="translate(240,600) scale(4.24)"><rect width="6" height="6"/></g>
<g transform="translate(264,600) scale(4.24)"><rect width="6" height="6"/></g>
<g transform="translate(288,600) scale(4.24)"><rect width="6" height="6"/></g>
<g transform="translate(312,600) scale(4.24)"><path d="M3,6H0V0l6,0v3C6,4.7,4.7,6,3,6z"/></g>
<g transform="translate(384,600) scale(4.24)"><path d="M6,6H3C1.3,6,0,4.7,0,3V0l6,0V6z"/></g>
<g transform="translate(408,600) scale(4.24)"><rect width="6" height="6"/></g>
<g transform="translate(432,600) scale(4.24)"><path d="M3,6H0V0l3,0c1.7,0,3,1.3,3,3v0C6,4.7,4.7,6,3,6z"/></g>
<g transform="translate(504,600) scale(4.24)"><path d="M6,6H3C1.3,6,0,4.7,0,3V0l6,0V6z"/></g>
<g transform="translate(528,600) scale(4.24)"><rect width="6" height="6"/></g>
<g transform="translate(624,600) scale(4.24)"><rect width="6" height="6"/></g>
<g transform="translate(648,600) scale(4.24)"><path d="M6,6H0V0l3,0c1.7,0,3,1.3,3,3V6z"/></g>
<g transform="translate(696,600) scale(4.24)"><path d="M6,6H3C1.3,6,0,4.7,0,3v0c0-1.7,1.3-3,3-3h3C6,0,6,6,6,6z"/></g>
<g transform="translate(720,600) scale(4.24)"><path d="M6,6H0V0l3,0c1.7,0,3,1.3,3,3V6z"/></g>
<g transform="translate(240,624) scale(4.24)"><rect width="6" height="6"/></g>
<g transform="translate(264,624) scale(4.24)"><rect width="6" height="6"/></g>
<g transform="translate(408,624) scale(4.24)"><rect width="6" height="6"/></g>
<g transform="translate(480,624) scale(4.24)"><circle cx="3" cy="3" r="3"/></g>
<g transform="translate(528,624) scale(4.24)"><rect width="6" height="6"/></g>
<g transform="translate(552,624) scale(4.24)"><rect width="6" height="6"/></g>
<g transform="translate(576,624) scale(4.24)"><rect width="6" height="6"/></g>
<g transform="translate(600,624) scale(4.24)"><rect width="6" height="6"/></g>
<g transform="translate(624,624) scale(4.24)"><rect width="6" height="6"/></g>
<g transform="translate(648,624) scale(4.24)"><rect width="6" height="6"/></g>
<g transform="translate(672,624) scale(4.24)"><path d="M6,6H0V0l3,0c1.7,0,3,1.3,3,3V6z"/></g>
<g transform="translate(720,624) scale(4.24)"><path d="M3,6L3,6C1.3,6,0,4.7,0,3V0h6v3C6,4.7,4.7,6,3,6z"/></g>
<g transform="translate(240,648) scale(4.24)"><rect width="6" height="6"/></g>
<g transform="translate(264,648) scale(4.24)"><rect width="6" height="6"/></g>
<g transform="translate(288,648) scale(4.24)"><rect width="6" height="6"/></g>
<g transform="translate(312,648) scale(4.24)"><path d="M3,6H0V0l3,0c1.7,0,3,1.3,3,3v0C6,4.7,4.7,6,3,6z"/></g>
<g transform="translate(360,648) scale(4.24)"><path d="M6,6H0V3c0-1.7,1.3-3,3-3l3,0V6z"/></g>
<g transform="translate(384,648) scale(4.24)"><rect width="6" height="6"/></g>
<g transform="translate(408,648) scale(4.24)"><rect width="6" height="6"/></g>
<g transform="translate(432,648) scale(4.24)"><path d="M3,6H0V0l3,0c1.7,0,3,1.3,3,3v0C6,4.7,4.7,6,3,6z"/></g>
<g transform="translate(504,648) scale(4.24)"><path d="M6,6H0V3c0-1.7,1.3-3,3-3l3,0V6z"/></g>
<g transform="translate(528,648) scale(4.24)"><rect width="6" height="6"/></g>
<g transform="translate(552,648) scale(4.24)"><rect width="6" height="6"/></g>
<g transform="translate(600,648) scale(4.24)"><rect width="6" height="6"/></g>
<g transform="translate(648,648) scale(4.24)"><rect width="6" height="6"/></g>
<g transform="translate(672,648) scale(4.24)"><rect width="6" height="6"/></g>
<g transform="translate(240,672) scale(4.24)"><rect width="6" height="6"/></g>
<g transform="translate(264,672) scale(4.24)"><rect width="6" height="6"/></g>
<g transform="translate(288,672) scale(4.24)"><path d="M3,6H0V0l6,0v3C6,4.7,4.7,6,3,6z"/></g>
<g transform="translate(360,672) scale(4.24)"><rect width="6" height="6"/></g>
<g transform="translate(504,672) scale(4.24)"><rect width="6" height="6"/></g>
<g transform="translate(528,672) scale(4.24)"><rect width="6" height="6"/></g>
<g transform="translate(552,672) scale(4.24)"><rect width="6" height="6"/></g>
<g transform="translate(576,672) scale(4.24)"><rect width="6" height="6"/></g>
<g transform="translate(600,672) scale(4.24)"><rect width="6" height="6"/></g>
<g transform="translate(624,672) scale(4.24)"><rect width="6" height="6"/></g>
<g transform="translate(648,672) scale(4.24)"><rect width="6" height="6"/></g>
<g transform="translate(672,672) scale(4.24)"><rect width="6" height="6"/></g>
<g transform="translate(696,672) scale(4.24)"><path d="M6,6H0V0l3,0c1.7,0,3,1.3,3,3V6z"/></g>
<g transform="translate(240,696) scale(4.24)"><path d="M3,6L3,6C1.3,6,0,4.7,0,3V0h6v3C6,4.7,4.7,6,3,6z"/></g>
<g transform="translate(312,696) scale(4.24)"><path d="M6,6H3C1.3,6,0,4.7,0,3v0c0-1.7,1.3-3,3-3h3C6,0,6,6,6,6z"/></g>
<g transform="translate(336,696) scale(4.24)"><rect width="6" height="6"/></g>
<g transform="translate(360,696) scale(4.24)"><rect width="6" height="6"/></g>
<g transform="translate(384,696) scale(4.24)"><path d="M3,6H0V0l3,0c1.7,0,3,1.3,3,3v0C6,4.7,4.7,6,3,6z"/></g>
<g transform="translate(432,696) scale(4.24)"><path d="M6,6H0V3c0-1.7,1.3-3,3-3h0c1.7,0,3,1.3,3,3V6z"/></g>
<g transform="translate(504,696) scale(4.24)"><rect width="6" height="6"/></g>
<g transform="translate(528,696) scale(4.24)"><rect width="6" height="6"/></g>
<g transform="translate(552,696) scale(4.24)"><rect width="6" height="6"/></g>
<g transform="translate(624,696) scale(4.24)"><rect width="6" height="6"/></g>
<g transform="translate(648,696) scale(4.24)"><path d="M3,6H0V0l6,0v3C6,4.7,4.7,6,3,6z"/></g>
<g transform="translate(696,696) scale(4.24)"><path d="M3,6L3,6C1.3,6,0,4.7,0,3V0h6v3C6,4.7,4.7,6,3,6z"/></g>
<g transform="translate(336,720) scale(4.24)"><path d="M3,6L3,6C1.3,6,0,4.7,0,3V0h6v3C6,4.7,4.7,6,3,6z"/></g>
<g transform="translate(432,720) scale(4.24)"><path d="M6,6H3C1.3,6,0,4.7,0,3V0l6,0V6z"/></g>
<g transform="translate(456,720) scale(4.24)"><path d="M3,6H0V0l3,0c1.7,0,3,1.3,3,3v0C6,4.7,4.7,6,3,6z"/></g>
<g transform="translate(504,720) scale(4.24)"><path d="M3,6L3,6C1.3,6,0,4.7,0,3V0h6v3C6,4.7,4.7,6,3,6z"/></g>
<g transform="translate(552,720) scale(4.24)"><path d="M3,6L3,6C1.3,6,0,4.7,0,3V0h6v3C6,4.7,4.7,6,3,6z"/></g>
<g transform="translate(624,720) scale(4.24)"><path d="M3,6L3,6C1.3,6,0,4.7,0,3V0h6v3C6,4.7,4.7,6,3,6z"/></g>
<g transform="translate(672,720) scale(4.24)"><circle cx="3" cy="3" r="3"/></g>
<g transform="translate(48,48)"><g transform="scale(12)"><path d="M4.5,14h5.1C12,14,14,12,14,9.6V4.5C14,2,12,0,9.5,0H4.4C2,0,0,2,0,4.4v5.1C0,12,2,14,4.5,14z M12,4.8v4.4 c0,1.5-1.3,2.8-2.8,2.8H4.8C3.2,12,2,10.8,2,9.2V4.8C2,3.3,3.3,2,4.8,2h4.4C10.8,2,12,3.2,12,4.8z"/></g></g>
<g transform="translate(576,48)"><g transform="scale(12)"><path d="M4.5,14h5.1C12,14,14,12,14,9.6V4.5C14,2,12,0,9.5,0H4.4C2,0,0,2,0,4.4v5.1C0,12,2,14,4.5,14z M12,4.8v4.4 c0,1.5-1.3,2.8-2.8,2.8H4.8C3.2,12,2,10.8,2,9.2V4.8C2,3.3,3.3,2,4.8,2h4.4C10.8,2,12,3.2,12,4.8z"/></g></g>
<g transform="translate(48,576)"><g transform="scale(12)"><path d="M4.5,14h5.1C12,14,14,12,14,9.6V4.5C14,2,12,0,9.5,0H4.4C2,0,0,2,0,4.4v5.1C0,12,2,14,4.5,14z M12,4.8v4.4 c0,1.5-1.3,2.8-2.8,2.8H4.8C3.2,12,2,10.8,2,9.2V4.8C2,3.3,3.3,2,4.8,2h4.4C10.8,2,12,3.2,12,4.8z"/></g></g>
<g transform="translate(96,96)"><g transform="scale(12)"><path d="M6,1.7v2.7C6,5.2,5.2,6,4.3,6H1.7C0.7,6,0,5.3,0,4.3V1.7C0,0.8,0.8,0,1.7,0h2.7C5.3,0,6,0.7,6,1.7z"/></g></g>
<g transform="translate(624,96)"><g transform="scale(12)"><path d="M6,1.7v2.7C6,5.2,5.2,6,4.3,6H1.7C0.7,6,0,5.3,0,4.3V1.7C0,0.8,0.8,0,1.7,0h2.7C5.3,0,6,0.7,6,1.7z"/></g></g>
<g transform="translate(96,624)"><g transform="scale(12)"><path d="M6,1.7v2.7C6,5.2,5.2,6,4.3,6H1.7C0.7,6,0,5.3,0,4.3V1.7C0,0.8,0.8,0,1.7,0h2.7C5.3,0,6,0.7,6,1.7z"/></g></g>
</g></svg>